<?xml version="1.0" standalone="no"?>
<!DOCTYPE svg PUBLIC "-//W3C//DTD SVG 20010904//EN"
 "http://www.w3.org/TR/2001/REC-SVG-20010904/DTD/svg10.dtd">
<svg version="1.0" xmlns="http://www.w3.org/2000/svg"
 width="88.000000pt" height="88.000000pt" viewBox="0 0 88.000000 88.000000"
 preserveAspectRatio="xMidYMid meet">
<metadata>
Created by potrace 1.14, written by Peter Selinger 2001-2017
</metadata>
<g transform="translate(0.000000,88.000000) scale(0.100000,-0.100000)"
fill="#000000" stroke="none">
<path d="M356 771 c-118 -39 -215 -130 -257 -241 -11 -30 -20 -84 -22 -133 -3
-51 -10 -94 -20 -114 -31 -60 -22 -73 58 -84 27 -4 73 -20 100 -36 192 -113
445 -33 547 174 25 51 32 81 38 160 5 61 14 111 25 131 16 32 16 34 -1 53 -11
12 -30 19 -52 19 -22 0 -69 17 -119 42 -73 36 -94 42 -161 45 -57 2 -93 -2
-136 -16z"/>
</g>
</svg>
